:FULLY-SPECIFIED
:FORCE-ALL-JOINTS-BE-3DOF
:DEGREES
68
root 5.91977 16.7641 -28.0975 11.065 2.83137 -3.88288
lfemur -35.738 15.618 -17.8809
ltibia 53.0919 -0 0
lfoot -21.1706 -11.0581 0.00979753
ltoes 31.6633 -0 0
rfemur -17.1138 -0.255996 21.9299
rtibia 30.2469 -0 0
rfoot -26.5682 -18.1955 -0.000637685
rtoes -9.7672 0 0
lowerback -3.5669 2.5263 3.32513
upperback -1.4044 3.2588 -0.1772
thorax 0.748703 1.62477 -1.9013
lowerneck -10.0448 -2.42778 2.20423
upperneck -5.60162 -3.39102 2.03441
head -0.088334 -1.71199 0.167886
lclavicle 0 0 0
lhumerus -40.4252 -11.8013 93.8426
lradius 43.9649 -0 0
lwrist 7.82682 0 0
lhand -12.9287 1.86111 0.000498427
lfingers 0 0 0
lthumb 13.1619 31.4251 0.000364269
rclavicle 0 0 0
rhumerus -39.1064 2.25614 -91.9133
rradius 42.2554 -0 0
rwrist 8.20481 0 0
rhand -25.1042 -21.7666 -4.61184e-06
rfingers 0 0 0
rthumb 1.41094 -51.7417 -4.40836e-06
69
root 5.92985 16.7632 -28.079 11.2576 2.89496 -3.9888
lfemur -36.2528 15.5501 -17.6462
ltibia 52.8308 -0 0
lfoot -21.0447 -9.87546 0.0216243
ltoes 30.6726 -0 0
rfemur -17.14 -0.138675 21.9975
rtibia 30.1102 -0 0
rfoot -26.5164 -18.3831 -0.001407
rtoes -9.89417 0 0
lowerback -3.71009 2.59375 3.27605
upperback -1.48452 3.34586 -0.149267
thorax 0.745753 1.66778 -1.83566
lowerneck -10.0798 -2.47999 2.28754
upperneck -5.60355 -3.46974 1.99413
head -0.0860314 -1.75275 0.139522
lclavicle 0 0 0
lhumerus -40.5437 -11.537 93.6845
lradius 43.991 -0 0
lwrist 7.91934 0 0
lhand -13.1069 1.81852 0.00109974
lfingers 0 0 0
lthumb 12.9901 31.3928 0.00080373
rclavicle 0 0 0
rhumerus -38.9357 2.38 -91.8146
rradius 42.2785 -0 0
rwrist 8.23982 0 0
rhand -25.0938 -21.7734 -1.01756e-05
rfingers 0 0 0
rthumb 1.42093 -51.7484 -9.7266e-06
70
root 5.93942 16.7634 -28.0596 11.4933 2.97328 -4.11817
lfemur -36.8833 15.4698 -17.3582
ltibia 52.5111 -0 0
lfoot -20.8903 -8.42771 0.0325616
ltoes 29.4598 -0 0
rfemur -17.1717 0.00498242 22.0802
rtibia 29.9429 -0 0
rfoot -26.453 -18.6128 -0.00211802
rtoes -10.0496 0 0
lowerback -3.88545 2.67615 3.21573
upperback -1.58256 3.45247 -0.115236
thorax 0.742209 1.72043 -1.75531
lowerneck -10.1228 -2.54383 2.38958
upperneck -5.60584 -3.56611 1.94483
head -0.0831851 -1.80264 0.104797
lclavicle 0 0 0
lhumerus -40.6897 -11.2138 93.4903
lradius 44.0229 -0 0
lwrist 8.0326 0 0
lhand -13.3251 1.76639 0.00165548
lfingers 0 0 0
lthumb 12.7797 31.3533 0.00120989
rclavicle 0 0 0
rhumerus -38.7264 2.53122 -91.6932
rradius 42.3067 -0 0
rwrist 8.28267 0 0
rhand -25.0812 -21.7817 -1.53176e-05
rfingers 0 0 0
rthumb 1.43316 -51.7566 -1.46418e-05
71
root 5.94836 16.7645 -28.04 11.757 3.0616 -4.26266
lfemur -37.5894 15.3834 -17.0348
ltibia 52.1531 -0 0
lfoot -20.7172 -6.80661 0.0401753
ltoes 28.1019 -0 0
rfemur -17.2071 0.165893 22.1727
rtibia 29.7555 -0 0
rfoot -26.3821 -18.87 -0.00261274
rtoes -10.2236 0 0
lowerback -4.08193 2.76819 3.14789
upperback -1.69227 3.57192 -0.0773436
thorax 0.738328 1.77939 -1.66535
lowerneck -10.171 -2.61522 2.50389
upperneck -5.6083 -3.67402 1.88962
head -0.0799621 -1.85851 0.0659109
lclavicle 0 0 0
lhumerus -40.8542 -10.8526 93.2722
lradius 44.0587 -0 0
lwrist 8.15942 0 0
lhand -13.5694 1.70801 0.00204216
lfingers 0 0 0
lthumb 12.5441 31.309 0.00149248
rclavicle 0 0 0
rhumerus -38.4917 2.70002 -91.5567
rradius 42.3383 -0 0
rwrist 8.33066 0 0
rhand -25.067 -21.791 -1.88953e-05
rfingers 0 0 0
rthumb 1.44685 -51.7658 -1.80616e-05
72
root 5.95654 16.7663 -28.0208 12.0337 3.15509 -4.41399
lfemur -38.3313 15.2969 -16.6941
ltibia 51.7772 -0 0
lfoot -20.5352 -5.10393 0.0428957
ltoes 26.6756 -0 0
rfemur -17.244 0.334961 22.2698
rtibia 29.5587 -0 0
rfoot -26.3076 -19.1401 -0.00278945
rtoes -10.4064 0 0
lowerback -4.28843 2.86461 3.07629
upperback -1.80743 3.69746 -0.0377857
thorax 0.734351 1.84132 -1.57086
lowerneck -10.2218 -2.6901 2.62403
upperneck -5.61077 -3.78736 1.83163
head -0.0765359 -1.91718 0.0250635
lclavicle 0 0 0
lhumerus -41.0283 -10.4738 93.0422
lradius 44.0962 -0 0
lwrist 8.29261 0 0
lhand -13.826 1.6467 0.00218028
lfingers 0 0 0
lthumb 12.2967 31.2625 0.00159343
rclavicle 0 0 0
rhumerus -38.2447 2.8767 -91.4125
rradius 42.3716 -0 0
rwrist 8.38105 0 0
rhand -25.0521 -21.8008 -2.01732e-05
rfingers 0 0 0
rthumb 1.46124 -51.7755 -1.92831e-05
73
root 5.96382 16.7684 -28.0027 12.3085 3.24874 -4.56397
lfemur -39.069 15.2151 -16.3545
ltibia 51.4035 -0 0
lfoot -20.3544 -3.41144 0.0402399
ltoes 25.2578 -0 0
rfemur -17.2803 0.503078 22.3661
rtibia 29.3631 -0 0
rfoot -26.2335 -19.4086 -0.00261693
rtoes -10.5881 0 0
lowerback -4.49383 2.9602 3.00477
upperback -1.92183 3.82233 0.0012903
thorax 0.730499 1.90289 -1.47694
lowerneck -10.2725 -2.76442 2.74353
upperneck -5.61312 -3.90002 1.77399
head -0.0730886 -1.9755 -0.0155443
lclavicle 0 0 0
lhumerus -41.2027 -10.098 92.8127
lradius 44.1336 -0 0
lwrist 8.42501 0 0
lhand -14.081 1.58575 0.00204544
lfingers 0 0 0
lthumb 12.0508 31.2163 0.00149488
rclavicle 0 0 0
rhumerus -37.9987 3.05171 -91.2684
rradius 42.4046 -0 0
rwrist 8.43115 0 0
rhand -25.0373 -21.8105 -1.89256e-05
rfingers 0 0 0
rthumb 1.47553 -51.7851 -1.80906e-05
74
root 5.97007 16.7708 -27.9864 12.5666 3.3374 -4.70453
lfemur -39.7624 15.1421 -16.0344
ltibia 51.0523 -0 0
lfoot -20.1845 -1.82093 0.0328756
ltoes 23.9255 -0 0
rfemur -17.3142 0.661123 22.4566
rtibia 29.1793 -0 0
rfoot -26.1639 -19.6609 -0.00213843
rtoes -10.7589 0 0
lowerback -4.68698 3.0498 2.93724
upperback -2.02928 3.93974 0.0377897
thorax 0.726971 1.96076 -1.38867
lowerneck -10.3203 -2.83417 2.85589
upperneck -5.61522 -4.0059 1.71981
head -0.0698113 -2.0303 -0.0537103
lclavicle 0 0 0
lhumerus -41.3678 -9.74548 92.5962
lradius 44.1686 -0 0
lwrist 8.54943 0 0
lhand -14.3207 1.52848 0.00167143
lfingers 0 0 0
lthumb 11.8197 31.1729 0.00122154
rclavicle 0 0 0
rhumerus -37.767 3.21561 -91.1323
rradius 42.4356 -0 0
rwrist 8.47823 0 0
rhand -25.0234 -21.8197 -1.54652e-05
rfingers 0 0 0
rthumb 1.48897 -51.7942 -1.47828e-05
75
root 5.97517 16.773 -27.9725 12.7932 3.41578 -4.82764
lfemur -40.3715 15.0811 -15.7527
ltibia 50.7438 -0 0
lfoot -20.0356 -0.424152 0.0225222
ltoes 22.7554 -0 0
rfemur -17.3438 0.799963 22.5359
rtibia 29.0178 -0 0
rfoot -26.1028 -19.8825 -0.00146539
rtoes -10.9088 0 0
lowerback -4.8567 3.1283 2.87768
upperback -2.12359 4.04291 0.0696659
thorax 0.723947 2.01158 -1.31116
lowerneck -10.3623 -2.89535 2.95462
upperneck -5.61698 -4.09888 1.67223
head -0.0669028 -2.07843 -0.0872315
lclavicle 0 0 0
lhumerus -41.5138 -9.43638 92.4054
lradius 44.1995 -0 0
lwrist 8.6587 0 0
lhand -14.5312 1.47818 0.00114537
lfingers 0 0 0
lthumb 11.6168 31.1348 0.000837081
rclavicle 0 0 0
rhumerus -37.5632 3.35909 -91.0122
rradius 42.4628 -0 0
rwrist 8.51957 0 0
rhand -25.0112 -21.8277 -1.05978e-05
rfingers 0 0 0
rthumb 1.50077 -51.8021 -1.01302e-05
